<svg id="visual" viewBox="0 0 900 600" width="900" height="600" xmlns="http://www.w3.org/2000/svg" xmlns:xlink="http://www.w3.org/1999/xlink" version="1.1"><rect width="900" height="600" fill="#001220"></rect><g><g transform="translate(504 417)"><path d="M86.6 -79.2C111.6 -61.6 130.8 -30.8 125 -5.8C119.2 19.2 88.3 38.3 63.3 58.6C38.3 78.8 19.2 100.1 0.1 100C-19 99.9 -37.9 78.4 -61.9 58.2C-85.8 37.9 -114.6 19 -114.9 -0.3C-115.2 -19.5 -86.8 -39 -62.9 -56.6C-39 -74.3 -19.5 -90 5.6 -95.7C30.8 -101.3 61.6 -96.8 86.6 -79.2Z" fill="none" stroke="#a7233a" stroke-width="4"></path></g><g transform="translate(55 171)"><path d="M44.5 -42.2C53.8 -35.2 54.8 -17.6 52.3 -2.5C49.8 12.6 43.9 25.3 34.6 36.3C25.3 47.3 12.6 56.7 -0.7 57.4C-14 58 -27.9 50 -38.2 39C-48.4 27.9 -55 14 -54.3 0.7C-53.6 -12.6 -45.6 -25.2 -35.4 -32.1C-25.2 -39.1 -12.6 -40.4 2.5 -42.9C17.6 -45.4 35.2 -49.1 44.5 -42.2Z" fill="none" stroke="#a7233a" stroke-width="4"></path></g><g transform="translate(820 165)"><path d="M37.5 -40.2C46.2 -28.8 49.2 -14.4 48.8 -0.4C48.4 13.6 44.6 27.2 35.9 40.7C27.2 54.2 13.6 67.5 -0.4 67.9C-14.4 68.3 -28.9 55.8 -36.7 42.4C-44.5 28.9 -45.6 14.4 -44.4 1.2C-43.2 -12.1 -39.8 -24.2 -32 -35.6C-24.2 -47 -12.1 -57.7 1.1 -58.9C14.4 -60 28.8 -51.6 37.5 -40.2Z" fill="none" stroke="#a7233a" stroke-width="4"></path></g><g transform="translate(191 469)"><path d="M65.4 -59.2C81.3 -49.5 88.3 -24.8 87 -1.2C85.8 22.3 76.3 44.6 60.5 57.6C44.6 70.7 22.3 74.5 0.2 74.2C-21.9 74 -43.7 69.8 -58.5 56.8C-73.2 43.7 -80.9 21.9 -79.3 1.5C-77.8 -18.8 -67 -37.5 -52.3 -47.2C-37.5 -56.8 -18.8 -57.4 3 -60.4C24.8 -63.4 49.5 -68.8 65.4 -59.2Z" fill="none" stroke="#a7233a" stroke-width="4"></path></g><g transform="translate(855 584)"><path d="M58.1 -57.3C77.4 -38.8 96.7 -19.4 99.3 2.7C102 24.8 88.2 49.5 68.8 60.3C49.5 71.1 24.8 67.9 -1.6 69.5C-27.9 71 -55.8 77.4 -68.4 66.6C-81 55.8 -78.3 27.9 -73.8 4.6C-69.2 -18.7 -62.7 -37.5 -50.1 -55.9C-37.5 -74.4 -18.7 -92.6 0.3 -92.9C19.4 -93.2 38.8 -75.7 58.1 -57.3Z" fill="none" stroke="#a7233a" stroke-width="4"></path></g><g transform="translate(513 75)"><path d="M65.9 -71.6C77.9 -54 74.8 -27 69.7 -5.1C64.6 16.9 57.7 33.8 45.7 57.1C33.8 80.4 16.9 110 -5.9 116C-28.7 121.9 -57.5 104.1 -72.9 80.8C-88.3 57.5 -90.4 28.7 -85.5 5C-80.5 -18.8 -68.5 -37.7 -53.1 -55.3C-37.7 -72.9 -18.8 -89.4 4.1 -93.5C27 -97.6 54 -89.3 65.9 -71.6Z" fill="none" stroke="#a7233a" stroke-width="4"></path></g></g></svg>