<svg id="visual" viewBox="0 0 1920 1080" width="1920" height="1080" xmlns="http://www.w3.org/2000/svg" xmlns:xlink="http://www.w3.org/1999/xlink" version="1.1"><rect x="0" y="0" width="1920" height="1080" fill="#001220"></rect><g fill="#A7233A"><circle r="124" cx="705" cy="691"></circle><circle r="31" cx="786" cy="978"></circle><circle r="82" cx="1164" cy="800"></circle><circle r="57" cx="295" cy="96"></circle><circle r="122" cx="1286" cy="178"></circle><circle r="57" cx="1907" cy="162"></circle><circle r="45" cx="1502" cy="370"></circle><circle r="109" cx="57" cy="1064"></circle><circle r="116" cx="1754" cy="394"></circle><circle r="91" cx="974" cy="130"></circle><circle r="71" cx="1665" cy="828"></circle><circle r="113" cx="387" cy="969"></circle><circle r="102" cx="328" cy="398"></circle><circle r="97" cx="142" cy="765"></circle><circle r="113" cx="852" cy="438"></circle><circle r="107" cx="20" cy="366"></circle><circle r="70" cx="1668" cy="66"></circle><circle r="34" cx="1407" cy="907"></circle><circle r="40" cx="1273" cy="535"></circle><circle r="85" cx="1895" cy="919"></circle><circle r="59" cx="1202" cy="1048"></circle><circle r="113" cx="1901" cy="637"></circle><circle r="61" cx="597" cy="252"></circle><circle r="35" cx="655" cy="9"></circle><circle r="94" cx="400" cy="718"></circle><circle r="68" cx="48" cy="113"></circle><circle r="116" cx="1670" cy="1077"></circle><circle r="78" cx="956" cy="665"></circle><circle r="36" cx="1524" cy="622"></circle></g></svg>