<svg id="visual" viewBox="0 0 900 600" width="900" height="600" xmlns="http://www.w3.org/2000/svg" xmlns:xlink="http://www.w3.org/1999/xlink" version="1.1"><rect width="900" height="600" fill="#001829"></rect><g><g transform="translate(185 367)"><path d="M0 -77.2L77.2 0L0 77.2L-77.2 0Z" fill="none" stroke="#297EA6" stroke-width="2"></path></g><g transform="translate(239 208)"><path d="M0 -73L73 0L0 73L-73 0Z" fill="none" stroke="#297EA6" stroke-width="2"></path></g><g transform="translate(773 156)"><path d="M0 -43L43 0L0 43L-43 0Z" fill="none" stroke="#297EA6" stroke-width="2"></path></g><g transform="translate(15 462)"><path d="M0 -58L58 0L0 58L-58 0Z" stroke="#297EA6" fill="none" stroke-width="2"></path></g><g transform="translate(396 295)"><path d="M0 -53L53 0L0 53L-53 0Z" stroke="#297EA6" fill="none" stroke-width="2"></path></g><g transform="translate(44 276)"><path d="M0 -54L54 0L0 54L-54 0Z" stroke="#297EA6" fill="none" stroke-width="2"></path></g><g transform="translate(629 522)"><path d="M0 -65L65 0L0 65L-65 0Z" stroke="#297EA6" fill="none" stroke-width="2"></path></g><g transform="translate(825 565)"><path d="M0 -28L28 0L0 28L-28 0Z" stroke="#297EA6" fill="none" stroke-width="2"></path></g><g transform="translate(379 571)"><path d="M0 -37L37 0L0 37L-37 0Z" stroke="#297EA6" fill="none" stroke-width="2"></path></g><g transform="translate(523 7)"><path d="M0 -42L42 0L0 42L-42 0Z" stroke="#297EA6" fill="none" stroke-width="2"></path></g><g transform="translate(746 323)"><path d="M0 -33L33 0L0 33L-33 0Z" stroke="#297EA6" fill="none" stroke-width="2"></path></g><g transform="translate(224 581)"><path d="M0 -57L57 0L0 57L-57 0Z" stroke="#297EA6" fill="none" stroke-width="2"></path></g><g transform="translate(108 115)"><path d="M0 -12L12 0L0 12L-12 0Z" stroke="#297EA6" fill="none" stroke-width="2"></path></g><g transform="translate(882 21)"><path d="M0 -40L40 0L0 40L-40 0Z" stroke="#297EA6" fill="none" stroke-width="2"></path></g><g transform="translate(527 208)"><path d="M0 -18L18 0L0 18L-18 0Z" stroke="#297EA6" fill="none" stroke-width="2"></path></g><g transform="translate(895 257)"><path d="M0 -54L54 0L0 54L-54 0Z" stroke="#297EA6" fill="none" stroke-width="2"></path></g><g transform="translate(563 360)"><path d="M0 -22L22 0L0 22L-22 0Z" stroke="#297EA6" fill="none" stroke-width="2"></path></g><g transform="translate(253 49)"><path d="M0 -52L52 0L0 52L-52 0Z" stroke="#297EA6" fill="none" stroke-width="2"></path></g><g transform="translate(698 12)"><path d="M0 -53L53 0L0 53L-53 0Z" stroke="#297EA6" fill="none" stroke-width="2"></path></g><g transform="translate(893 421)"><path d="M0 -31L31 0L0 31L-31 0Z" stroke="#297EA6" fill="none" stroke-width="2"></path></g></g></svg>